<?xml version="1.0" standalone="no"?>
<!DOCTYPE svg PUBLIC "-//W3C//DTD SVG 20010904//EN"
 "http://www.w3.org/TR/2001/REC-SVG-20010904/DTD/svg10.dtd">
<svg version="1.0" xmlns="http://www.w3.org/2000/svg"
 width="128.000000pt" height="128.000000pt" viewBox="0 0 128.000000 128.000000"
 preserveAspectRatio="xMidYMid meet">
<metadata>
Created by potrace 1.11, written by Peter Selinger 2001-2013
</metadata>
<g transform="translate(0.000000,128.000000) scale(0.100000,-0.100000)"
fill="#000000" stroke="none">
<path d="M806 1245 c-19 -7 -42 -19 -51 -28 -28 -28 -46 -84 -39 -124 l6 -38
-264 1 -265 2 -1 -222 c-2 -233 -2 -234 -21 -281 -7 -16 -14 -34 -15 -40 -3
-10 -5 -16 -22 -60 -10 -28 -15 -47 -18 -70 -2 -14 45 -68 165 -188 l168 -168
73 6 c40 3 96 8 123 10 28 3 70 7 95 9 138 13 186 18 200 25 8 4 60 6 116 5
l101 -1 0 487 0 488 -94 -2 -94 -1 2 35 c5 70 -1 89 -35 123 -39 39 -80 49
-130 32z"/>
</g>
</svg>
